<?xml version="1.0" standalone="no"?><!DOCTYPE svg PUBLIC "-//W3C//DTD SVG 1.1//EN" "http://www.w3.org/Graphics/SVG/1.1/DTD/svg11.dtd"><svg t="1582273987071" class="icon" viewBox="0 0 1024 1024" version="1.1" xmlns="http://www.w3.org/2000/svg" p-id="5947" xmlns:xlink="http://www.w3.org/1999/xlink" width="200" height="200"><defs><style type="text/css"></style></defs><path d="M514.154985 2.954826c-18.116139 0-36.003025 0.957771-53.57405 2.812179l201.794229 250.834149-0.545114 0.453413-72.367761 58.189692-120.317453 96.816398 135.310647 168.185632 191.732537-154.236816a294.494249 294.494249 0 0 1 12.858587 86.403184c0 161.751244-130.282348 293.128915-291.676975 294.850865l152.973373 190.14814c204.95793-65.887522 353.264716-258.124418 353.264716-484.999005 0-81.420736-19.104478-158.358289-53.120636-226.655523a510.125214 510.125214 0 0 0-134.85214-168.542248C747.953035 45.748856 636.056836 2.954826 514.149891 2.954826m40.124497 47.032676c92.277174 8.049353 180.784398 43.675383 252.77007 102.343961 51.154149 41.622289 93.647602 94.732736 122.900378 153.615283 32.100617 64.445771 48.372537 133.914746 48.372537 206.460816 0 100.229731-31.428139 195.64004-90.881273 275.914508-52.162866 70.436935-121.555423 123.786826-201.99801 155.607243l-82.811543-102.934925c57.568159-15.400756 110.281234-45.850746 153.28414-89.286687 63.467622-64.109532 98.41608-149.091343 98.416079-239.300139 0-33.970308-4.992637-67.502488-14.845453-99.664239l-11.116258-36.293413c-4.055244-13.245771-20.199801-18.202746-30.99001-9.526766l-29.578826 23.791443-156.447841 125.860299-78.542328-97.626428 85.032756-68.419503 72.362667-58.189691 0.320955-0.259821 0.315861-0.264916 0.540019-0.458507 19.389772-16.164935a19.583363 19.583363 0 0 0 2.710288-27.306667l-15.828696-19.675065L554.284577 49.992597" fill="#1296db" p-id="5948" data-spm-anchor-id="a313x.7781069.0.i60" class=""></path><path d="M517.369632 807.263522l152.973373 190.14814a500.068617 500.068617 0 0 1-102.659821 21.646646h-0.045851l-199.797174-248.429532 1.538547-1.273632 71.323384-57.369472 120.500855-96.913194-135.310646-168.185632-192.771821 155.097791a292.53795 292.53795 0 0 1-13.902966-89.57198c0-161.802189 130.282348-293.128915 291.631125-294.896717L357.921114 27.408557a500.527124 500.527124 0 0 1 102.664916-21.651741l201.78404 250.839244-0.54002 0.453413-72.367761 58.189691-120.317453 96.816398 135.305552 168.185632 191.737632-154.236816a294.326129 294.326129 0 0 1 12.858587 86.403184c0 161.751244-130.282348 293.128915-291.676975 294.850866" fill="#2c2c2c" p-id="5949" data-spm-anchor-id="a313x.7781069.0.i61" class="selected"></path><path d="M567.632239 1019.058308a509.422169 509.422169 0 0 1-53.477254 2.807085c-120.770866 0-231.719483-42.024756-319.029492-112.25791a511.082985 511.082985 0 0 1-135.896518-167.737314C24.311085 672.900458 4.702249 594.918527 4.702249 512.412657c0-226.874587 148.301692-419.111483 353.218865-484.999005l152.932617 190.102288c-161.353871 1.767801-291.636219 133.094527-291.636219 294.896717 0 31.249831 4.839801 61.363582 13.902966 89.57198l192.776915-155.102886 135.310647 168.190727-120.50595 96.913194-71.323384 57.369472-1.538547 1.273632 199.797174 248.429532z" fill="#1296db" p-id="5950" data-spm-anchor-id="a313x.7781069.0.i59" class=""></path></svg>